# Blender v2.79 (sub 0) OBJ File: ''
# www.blender.org
mtllib hexa2.mtl
o Cylinder
v 0.000000 -17.999996 -20.000004
v 0.000000 18.000004 -19.999996
v 17.320400 18.000002 -9.999997
v 17.320400 -17.999998 -10.000003
v 17.320400 17.999998 10.000003
v 17.320400 -18.000002 9.999997
v 0.000000 17.999996 20.000004
v 0.000000 -18.000004 19.999996
v -17.320400 17.999998 10.000003
v -17.320400 -18.000002 9.999997
v -17.320400 18.000002 -9.999997
v -17.320400 -17.999998 -10.000003
vn 0.5000 0.0000 -0.8660
vn 1.0000 0.0000 0.0000
vn 0.5000 -0.0000 0.8660
vn -0.5000 -0.0000 0.8660
vn 0.0000 1.0000 0.0000
vn -1.0000 -0.0000 0.0000
vn -0.5000 0.0000 -0.8660
vn 0.0000 -1.0000 -0.0000
usemtl None
s 1
f 1//1 2//1 3//1 4//1
f 4//2 3//2 5//2 6//2
f 6//3 5//3 7//3 8//3
f 8//4 7//4 9//4 10//4
f 3//5 2//5 11//5 9//5 7//5 5//5
f 10//6 9//6 11//6 12//6
f 12//7 11//7 2//7 1//7
f 1//8 4//8 6//8 8//8 10//8 12//8
